{"asset":{"version":"2.0","generator":"THREE.GLTFExporter"},"scenes":[{"nodes":[0],"name":"AuxScene"}],"scene":0,"nodes":[{"mesh":0}],"bufferViews":[{"buffer":0,"byteOffset":0,"byteLength":9576,"target":34962,"byteStride":12},{"buffer":0,"byteOffset":9576,"byteLength":9576,"target":34962,"byteStride":12}],"buffers":[{"byteLength":19152,"uri":"data:application/octet-stream;base64,"}],"accessors":[{"bufferView":0,"componentType":5126,"count":798,"max":[100.61190795898438,5.195969104766846,100.61190795898438],"min":[-100.78809356689453,0.19596900045871735,-100.78809356689453],"type":"VEC3"},{"bufferView":1,"componentType":5126,"count":798,"max":[0.5547069311141968,1,0.9218205213546753],"min":[-0.1620202511548996,0.08206440508365631,-0.41361871361732483],"type":"VEC3"}],"materials":[{"pbrMetallicRoughness":{"baseColorFactor":[0.5019607843137255,0.5019607843137255,0.5019607843137255,1],"metallicFactor":0,"roughnessFactor":1}}],"meshes":[{"primitives":[{"mode":4,"attributes":{"POSITION":0,"NORMAL":1},"material":0}]}]}